HIERARCHY
ROOT joint_Root
{
	OFFSET 0.0 0.0 0.0
	CHANNELS 6 Xposition Yposition Zposition Zrotation Xrotation Yrotation 
	JOINT Hips
	{
		OFFSET 4.5925 91.4895 -427.239
		CHANNELS 6 Xposition Yposition Zposition Zrotation Xrotation Yrotation 
		JOINT Spine
		{
			OFFSET 15.7357 0.0 0.0
			CHANNELS 6 Xposition Yposition Zposition Zrotation Xrotation Yrotation 
			JOINT Chest
			{
				OFFSET 8.98455 -0.406207 0.0
				CHANNELS 6 Xposition Yposition Zposition Zrotation Xrotation Yrotation 
				JOINT Neck
				{
					OFFSET 16.3773 0.0 0.0
					CHANNELS 6 Xposition Yposition Zposition Zrotation Xrotation Yrotation 
					JOINT Head
					{
						OFFSET 6.45672 0.0 0.0
						CHANNELS 6 Xposition Yposition Zposition Zrotation Xrotation Yrotation 
						End Site
						{
							OFFSET 0.0 0.0 0.0
						}
					}
				}
				JOINT Shoulder_L
				{
					OFFSET 12.9942 -0.242716 4.98039
					CHANNELS 6 Xposition Yposition Zposition Zrotation Xrotation Yrotation 
					JOINT UpperArm_L
					{
						OFFSET 5.34809 0.0 0.0
						CHANNELS 6 Xposition Yposition Zposition Zrotation Xrotation Yrotation 
						JOINT LowerArm_L
						{
							OFFSET 24.3286 1.87007e-05 0.0
							CHANNELS 6 Xposition Yposition Zposition Zrotation Xrotation Yrotation 
							JOINT Hand_L
							{
								OFFSET 22.2916 0.0 0.0
								CHANNELS 6 Xposition Yposition Zposition Zrotation Xrotation Yrotation 
								End Site
								{
									OFFSET 0.0 0.0 0.0
								}
							}
						}
					}
				}
				JOINT Shoulder_R
				{
					OFFSET 12.9945 -0.242716 -4.98039
					CHANNELS 6 Xposition Yposition Zposition Zrotation Xrotation Yrotation 
					JOINT UpperArm_R
					{
						OFFSET -5.34813 0.0 0.0
						CHANNELS 6 Xposition Yposition Zposition Zrotation Xrotation Yrotation 
						JOINT LowerArm_R
						{
							OFFSET -24.3289 0.000322201 0.0
							CHANNELS 6 Xposition Yposition Zposition Zrotation Xrotation Yrotation 
							JOINT Hand_R
							{
								OFFSET -22.2915 -0.000108084 0.0
								CHANNELS 6 Xposition Yposition Zposition Zrotation Xrotation Yrotation 
								End Site
								{
									OFFSET 0.0 0.0 0.0
								}
							}
						}
					}
				}
			}
		}
		JOINT UpperLeg_L
		{
			OFFSET -2.19248 -6.46944 0.0
			CHANNELS 6 Xposition Yposition Zposition Zrotation Xrotation Yrotation 
			JOINT LowerLeg_L
			{
				OFFSET 39.0811 0.0 -1.23785e-05
				CHANNELS 6 Xposition Yposition Zposition Zrotation Xrotation Yrotation 
				JOINT Foot_L
				{
					OFFSET 40.9854 0.0 -1.26872e-05
					CHANNELS 6 Xposition Yposition Zposition Zrotation Xrotation Yrotation 
					JOINT Toes_L
					{
						OFFSET 11.7543 0.0 0.0
						CHANNELS 6 Xposition Yposition Zposition Zrotation Xrotation Yrotation 
						End Site
						{
							OFFSET 0.0 0.0 0.0
						}
					}
				}
			}
		}
		JOINT UpperLeg_R
		{
			OFFSET -2.19251 6.46944 0.0
			CHANNELS 6 Xposition Yposition Zposition Zrotation Xrotation Yrotation 
			JOINT LowerLeg_R
			{
				OFFSET -39.0811 -0.00228153 -0.0401928
				CHANNELS 6 Xposition Yposition Zposition Zrotation Xrotation Yrotation 
				JOINT Foot_R
				{
					OFFSET -40.9854 0.0 0.0
					CHANNELS 6 Xposition Yposition Zposition Zrotation Xrotation Yrotation 
					JOINT Toes_R
					{
						OFFSET -11.7543 0.0 0.0
						CHANNELS 6 Xposition Yposition Zposition Zrotation Xrotation Yrotation 
						End Site
						{
							OFFSET 0.0 0.0 0.0
						}
					}
				}
			}
		}
	}
}
MOTION
Frames:	9
Frame Time:	0.0333333
0.000000 0.000000 0.000000 0.000000 0.000000 -0.000000 2.391470 82.326100 -0.730742 91.184400 -4.814400 11.897700 15.735700 0.000005 -0.000001 108.628000 79.520000 -108.543000 8.984550 -0.406207 -0.000000 12.150100 6.638840 -0.536285 16.377300 -0.000001 -0.000001 -2.253460 -5.007650 2.338030 6.456720 -0.000001 -0.000000 -4.330880 -10.123600 4.676260 12.994200 -0.242716 4.980390 -92.701300 6.196820 -66.390000 5.348090 -0.000007 -0.000001 -76.818400 12.440600 12.950900 24.328600 0.000019 0.000005 -1.541510 -3.548340 -23.501100 22.291600 -0.000001 0.000005 21.869000 5.158470 3.738330 12.994500 -0.242716 -4.980390 88.772600 9.102700 -82.287200 -5.348130 -0.000001 -0.000004 -58.616000 24.252300 -16.975400 -24.328900 0.000322 -0.000009 -1.991840 -4.262790 -25.061800 -22.291500 -0.000108 -0.000004 17.847100 5.449000 -4.604200 -2.192480 -6.469440 -0.000000 -176.472000 -19.900300 -13.497400 39.081100 -0.000007 -0.000012 -0.123829 0.067654 61.351600 40.985400 -0.000006 -0.000013 6.460440 8.123760 -86.127900 11.754300 -0.000000 0.000003 -0.000055 -0.000618 -16.601500 -2.192510 6.469440 -0.000001 173.247000 8.953630 163.957000 -39.081100 -0.002282 -0.040193 0.076559 -0.037633 62.848300 -40.985400 0.000008 0.000006 3.980740 3.844620 -84.300200 -11.754300 -0.000006 -0.000006 -0.569944 -0.699971 -17.109300
0.000000 0.000000 0.000000 0.000000 0.000000 -0.000000 3.196940 84.280900 -0.547876 91.270200 -8.856480 10.999900 15.735700 0.000005 -0.000001 107.851000 80.277800 -106.965000 8.984550 -0.406207 -0.000000 10.738900 5.940680 1.213270 16.377300 -0.000001 -0.000001 -1.308690 -3.673660 2.030750 6.456720 -0.000001 -0.000000 -3.996510 -7.638190 2.507580 12.994200 -0.242716 4.980390 -92.291400 5.057190 -65.584400 5.348090 -0.000007 -0.000001 -73.928000 10.648900 9.731750 24.328600 0.000019 0.000005 2.195180 4.969460 -23.859500 22.291600 -0.000001 0.000005 19.388600 5.172970 3.388360 12.994500 -0.242716 -4.980390 88.680200 8.941160 -81.567900 -5.348130 -0.000001 -0.000004 -59.558500 24.180000 -16.884700 -24.328900 0.000322 -0.000009 -2.093600 -4.026950 -27.490600 -22.291500 -0.000108 -0.000004 17.731600 5.452120 -4.715240 -2.192480 -6.469440 -0.000000 -177.228000 -21.710900 -11.135500 39.081100 -0.000007 -0.000012 -0.151195 0.104232 55.419300 40.985400 -0.000006 -0.000013 5.504420 6.267150 -83.498400 11.754300 -0.000000 0.000003 -0.000056 -0.000626 -16.601800 -2.192510 6.469440 -0.000001 173.052000 7.183970 165.052000 -39.081100 -0.002282 -0.040193 0.049886 -0.029968 57.294100 -40.985400 0.000008 0.000006 4.227050 6.300700 -81.133100 -11.754300 -0.000006 -0.000006 -0.322490 -0.400801 -17.380800
0.000000 0.000000 0.000000 0.000000 0.000000 -0.000000 3.617690 86.507100 -0.453643 90.911700 -11.569500 9.399760 15.735700 0.000005 -0.000001 107.620000 81.400900 -105.743000 8.984550 -0.406207 -0.000000 8.568740 5.193840 3.362870 16.377300 -0.000001 -0.000001 0.888751 -2.414730 0.975654 6.456720 -0.000001 -0.000000 -3.564810 -5.459260 -0.565863 12.994200 -0.242716 4.980390 -91.620300 3.479990 -65.013800 5.348090 -0.000007 -0.000001 -66.244900 4.169240 1.667460 24.328600 0.000019 0.000005 4.805650 9.892590 -26.080800 22.291600 -0.000001 0.000005 19.721100 5.147610 3.999050 12.994500 -0.242716 -4.980390 88.630400 8.338070 -80.637300 -5.348130 -0.000001 -0.000004 -61.317800 24.095000 -14.765200 -24.328900 0.000322 -0.000009 -1.642230 -2.832420 -30.107800 -22.291500 -0.000108 -0.000004 17.603000 5.464960 -5.183700 -2.192480 -6.469440 -0.000000 -177.677000 -22.739200 -9.073820 39.081100 -0.000007 -0.000012 -0.145199 0.129875 48.189400 40.985400 -0.000006 -0.000013 4.720090 5.219890 -80.000500 11.754300 -0.000000 0.000003 -0.000042 -0.000488 -16.596500 -2.192510 6.469440 -0.000001 173.410000 7.080450 166.522000 -39.081100 -0.002282 -0.040193 0.032001 -0.023956 50.201400 -40.985400 0.000008 0.000006 4.245670 8.648080 -77.189700 -11.754300 -0.000006 -0.000006 -0.002309 -0.032524 -17.895700
0.000000 0.000000 0.000000 0.000000 0.000000 -0.000000 3.690560 88.450700 -0.436094 90.434900 -12.538700 7.859650 15.735700 0.000005 -0.000001 106.683000 82.570700 -103.973000 8.984550 -0.406207 -0.000000 6.386230 4.220290 5.180370 16.377300 -0.000001 -0.000001 3.588530 -1.605940 0.120231 6.456720 -0.000001 -0.000000 -2.822450 -3.860970 -3.307550 12.994200 -0.242716 4.980390 -91.011800 2.178620 -65.082900 5.348090 -0.000007 -0.000001 -57.240200 -8.465310 -9.817540 24.328600 0.000019 0.000005 2.462260 4.409160 -29.228500 22.291600 -0.000001 0.000005 21.193700 5.146910 4.018490 12.994500 -0.242716 -4.980390 88.539600 7.974810 -79.587800 -5.348130 -0.000001 -0.000004 -62.643500 23.781600 -12.103500 -24.328900 0.000322 -0.000009 -1.598010 -2.584050 -31.730900 -22.291500 -0.000108 -0.000004 16.915900 5.472890 -5.478010 -2.192480 -6.469440 -0.000000 -177.920000 -22.549300 -7.133510 39.081100 -0.000007 -0.000012 -0.132284 0.151660 41.096700 40.985400 -0.000006 -0.000013 4.070170 4.724610 -76.407600 11.754300 -0.000000 0.000003 -0.000030 -0.000366 -16.591800 -2.192510 6.469440 -0.000001 173.786000 8.923790 168.562000 -39.081100 -0.002282 -0.040193 0.021442 -0.019494 42.989000 -40.985400 0.000008 0.000006 4.237940 11.163100 -73.559000 -11.754300 -0.000006 -0.000006 -0.003670 -0.047959 -18.523800
0.000000 0.000000 0.000000 0.000000 0.000000 -0.000000 3.461420 89.772800 -0.446114 89.982000 -12.447200 6.972700 15.735700 0.000005 -0.000001 105.308000 83.388900 -102.205000 8.984550 -0.406207 -0.000000 4.909230 3.406630 6.053510 16.377300 -0.000001 -0.000001 5.431490 -1.477080 0.196221 6.456720 -0.000001 -0.000000 -1.571390 -2.772500 -4.468120 12.994200 -0.242716 4.980390 -90.322800 0.738223 -66.400500 5.348090 -0.000007 -0.000001 -49.382900 -22.418700 -23.917900 24.328600 0.000019 0.000005 3.348930 4.835450 -34.761100 22.291600 -0.000001 0.000005 21.912100 5.196300 2.809910 12.994500 -0.242716 -4.980390 88.353300 8.305690 -78.744600 -5.348130 -0.000001 -0.000004 -62.824400 23.449400 -9.876250 -24.328900 0.000322 -0.000009 -1.935350 -3.112460 -31.881800 -22.291500 -0.000108 -0.000004 16.517200 5.472530 -5.465060 -2.192480 -6.469440 -0.000000 -177.726000 -21.853500 -5.298080 39.081100 -0.000007 -0.000012 -0.107472 0.149914 35.636800 40.985400 -0.000006 -0.000013 3.571670 4.754500 -73.590300 11.754300 -0.000000 0.000003 -0.000017 -0.000222 -16.586200 -2.192510 6.469440 -0.000001 174.092000 11.989100 170.919000 -39.081100 -0.002282 -0.040193 0.014965 -0.015441 37.103200 -40.985400 0.000008 0.000006 4.540870 13.814900 -71.161000 -11.754300 -0.000006 -0.000006 -0.004136 -0.052849 -18.722900
0.000000 0.000000 0.000000 0.000000 0.000000 -0.000000 3.173810 90.569800 -0.473451 89.257300 -12.098600 6.677420 15.735700 0.000005 -0.000001 103.216000 83.741700 -99.919100 8.984550 -0.406207 -0.000000 4.352430 2.758860 6.482030 16.377300 -0.000001 -0.000001 6.154850 -1.438280 0.621443 6.456720 -0.000001 -0.000000 -0.881376 -2.192680 -4.061120 12.994200 -0.242716 4.980390 -89.345400 -1.667110 -68.544800 5.348090 -0.000007 -0.000001 -43.099700 -35.811300 -37.752100 24.328600 0.000019 0.000005 5.121240 5.476810 -43.193700 22.291600 -0.000001 0.000005 23.273000 5.308390 -0.150465 12.994500 -0.242716 -4.980390 88.152900 8.825740 -78.130100 -5.348130 -0.000001 -0.000004 -61.745400 23.513900 -9.127490 -24.328900 0.000322 -0.000009 -1.597010 -2.763390 -30.018500 -22.291500 -0.000108 -0.000004 16.406900 5.465480 -5.202420 -2.192480 -6.469440 -0.000000 -177.205000 -20.041400 -3.847580 39.081100 -0.000007 -0.000012 -0.103822 0.164932 32.190000 40.985400 -0.000006 -0.000013 2.884410 3.779180 -71.731200 11.754300 -0.000000 0.000003 -0.000014 -0.000182 -16.584700 -2.192510 6.469440 -0.000001 174.607000 14.804800 173.218000 -39.081100 -0.002282 -0.040193 0.009440 -0.009548 32.757700 -40.985400 0.000008 0.000006 4.906670 16.120600 -69.594800 -11.754300 -0.000006 -0.000006 -0.004267 -0.054184 -18.777300
0.000000 0.000000 0.000000 0.000000 0.000000 -0.000000 3.151700 91.040300 -0.632941 88.592500 -12.281100 6.050600 15.735700 0.000005 -0.000001 99.382200 84.015900 -96.012400 8.984550 -0.406207 -0.000000 3.998760 1.837670 6.668130 16.377300 -0.000001 -0.000001 6.028500 -0.679496 0.452695 6.456720 -0.000001 -0.000000 -0.672560 -1.677280 -2.290380 12.994200 -0.242716 4.980390 -87.980600 -5.374040 -69.372100 5.348090 -0.000007 -0.000001 -37.655100 -47.779700 -49.409000 24.328600 0.000019 0.000005 7.093370 5.589740 -51.951300 22.291600 -0.000001 0.000005 29.853000 5.359480 -1.644740 12.994500 -0.242716 -4.980390 88.096400 9.306320 -78.385700 -5.348130 -0.000001 -0.000004 -59.867200 23.615300 -9.256860 -24.328900 0.000322 -0.000009 -0.387466 -0.736583 -27.655500 -22.291500 -0.000108 -0.000004 16.492200 5.437610 -4.203020 -2.192480 -6.469440 -0.000000 -177.037000 -18.587500 -3.578860 39.081100 -0.000007 -0.000012 -0.105543 0.181527 30.174700 40.985400 -0.000006 -0.000013 2.414170 2.409870 -70.536700 11.754300 -0.000000 0.000003 -0.000016 -0.000211 -16.585800 -2.192510 6.469440 -0.000001 175.045000 17.361100 174.288000 -39.081100 -0.002282 -0.040193 0.002725 0.001014 29.668700 -40.985400 0.000008 0.000006 4.957720 18.772600 -68.317800 -11.754300 -0.000006 -0.000006 -0.004039 -0.051850 -18.682200
0.000000 0.000000 0.000000 0.000000 0.000000 -0.000000 3.414480 91.322900 -0.749883 88.157800 -13.316700 5.062180 15.735700 0.000005 -0.000001 97.008200 84.498400 -93.663400 8.984550 -0.406207 -0.000000 3.129180 1.206000 6.649600 16.377300 -0.000001 -0.000001 6.059770 0.361036 -0.796367 6.456720 -0.000001 -0.000000 -0.211891 -1.474180 0.294565 12.994200 -0.242716 4.980390 -86.115100 -9.603890 -67.855900 5.348090 -0.000007 -0.000001 -26.165100 -54.533500 -53.296700 24.328600 0.000019 0.000005 6.472940 4.635620 -54.547400 22.291600 -0.000001 0.000005 41.453700 5.410100 -3.270290 12.994500 -0.242716 -4.980390 88.115000 9.756520 -79.009600 -5.348130 -0.000001 -0.000004 -58.932200 21.838200 -8.305070 -24.328900 0.000322 -0.000009 1.035210 2.116560 -26.099100 -22.291500 -0.000108 -0.000004 16.878700 5.412530 -3.350420 -2.192480 -6.469440 -0.000000 -177.085000 -19.163100 -3.907180 39.081100 -0.000007 -0.000012 -0.096813 0.175648 28.862600 40.985400 -0.000006 -0.000013 2.434080 1.936110 -69.854300 11.754300 -0.000000 0.000003 -0.000015 -0.000195 -16.585200 -2.192510 6.469440 -0.000001 175.309000 19.312000 174.273000 -39.081100 -0.002282 -0.040193 -0.003345 0.012767 27.520100 -40.985400 0.000008 0.000006 4.839900 21.732600 -67.259400 -11.754300 -0.000006 -0.000006 -0.003949 -0.050906 -18.643800
0.000000 0.000000 0.000000 0.000000 0.000000 -0.000000 3.863730 91.503100 -0.686757 87.921100 -14.860700 4.426970 15.735700 0.000005 -0.000001 95.480600 84.860500 -91.997000 8.984550 -0.406207 -0.000000 2.450810 0.819637 6.942760 16.377300 -0.000001 -0.000001 6.167520 1.603840 -2.633380 6.456720 -0.000001 -0.000000 0.045315 -1.323650 0.561297 12.994200 -0.242716 4.980390 -84.369200 -11.974800 -64.584200 5.348090 -0.000007 -0.000001 -24.642900 -59.284300 -62.540300 24.328600 0.000019 0.000005 13.536200 11.562500 -50.222800 22.291600 -0.000001 0.000005 37.005300 5.379590 -2.270230 12.994500 -0.242716 -4.980390 88.250900 9.531720 -79.551700 -5.348130 -0.000001 -0.000004 -59.760700 17.626700 -6.992730 -24.328900 0.000322 -0.000009 2.065100 4.356200 -25.406500 -22.291500 -0.000108 -0.000004 17.649100 5.395370 -2.787710 -2.192480 -6.469440 -0.000000 -177.144000 -20.928600 -3.792480 39.081100 -0.000007 -0.000012 -0.092720 0.175925 27.791400 40.985400 -0.000006 -0.000013 2.727760 2.112070 -69.515500 11.754300 -0.000000 0.000003 -0.000013 -0.000173 -16.584300 -2.192510 6.469440 -0.000001 175.301000 19.926100 174.196000 -39.081100 -0.002282 -0.040193 -0.021135 0.050071 26.021900 -40.985400 0.000008 0.000006 4.202100 24.006000 -66.126100 -11.754300 -0.000006 -0.000006 -0.003946 -0.050882 -18.642800
